<svg width="31" height="36" viewBox="0 0 31 36" fill="none" xmlns="http://www.w3.org/2000/svg">
<path fill-rule="evenodd" clip-rule="evenodd" d="M3.85714 0C1.72691 0 0 1.72691 0 3.85714V32.1429C0 34.2732 1.72689 36 3.85714 36H27C29.1303 36 30.8571 34.2732 30.8571 32.1429V3.85714C30.8571 1.72691 29.1303 0 27 0H3.85714ZM2.57143 3.85714C2.57143 3.14707 3.14707 2.57143 3.85714 2.57143H5.14286V33.4286H3.85714C3.14707 33.4286 2.57143 32.853 2.57143 32.1429V3.85714ZM18.7786 13.5679C19.0962 12.9327 19.8684 12.6753 20.5035 12.9929C21.1387 13.3105 21.3961 14.0827 21.0785 14.7178L17.2214 22.4321C16.9038 23.0673 16.1316 23.3247 15.4965 23.0071C14.8613 22.6895 14.6039 21.9173 14.9215 21.2822L18.7786 13.5679ZM14.0877 14.198C14.5898 14.7001 14.5898 15.5142 14.0877 16.0163L12.104 18L14.0877 19.9837C14.5898 20.4858 14.5898 21.2999 14.0877 21.802C13.5856 22.3041 12.7715 22.3041 12.2694 21.802L9.37659 18.9091C8.87451 18.4071 8.87451 17.5929 9.37659 17.0909L12.2694 14.198C12.7715 13.6959 13.5856 13.6959 14.0877 14.198ZM21.9123 16.0163C21.4102 15.5142 21.4102 14.7001 21.9123 14.198C22.4144 13.6959 23.2285 13.6959 23.7306 14.198L26.6234 17.0909C27.1255 17.5929 27.1255 18.4071 26.6234 18.9091L23.7306 21.802C23.2285 22.3041 22.4144 22.3041 21.9123 21.802C21.4102 21.2999 21.4102 20.4858 21.9123 19.9837L23.896 18L21.9123 16.0163Z" fill="#062630"/>
<path d="M7.42859 12H29.4286V24H7.42859V12Z" fill="#062630"/>
</svg>
