<svg width="161" height="36" viewBox="0 0 161 36" fill="none" xmlns="http://www.w3.org/2000/svg">
<g clip-path="url(#clip0_122_599)">
<path fill-rule="evenodd" clip-rule="evenodd" d="M3.85714 0C1.72691 0 0 1.72691 0 3.85714V32.1429C0 34.2732 1.72689 36 3.85714 36H27C29.1303 36 30.8571 34.2732 30.8571 32.1429V3.85714C30.8571 1.72691 29.1303 0 27 0H3.85714ZM2.57143 3.85714C2.57143 3.14707 3.14707 2.57143 3.85714 2.57143H5.14286V33.4286H3.85714C3.14707 33.4286 2.57143 32.853 2.57143 32.1429V3.85714ZM18.7786 13.5679C19.0962 12.9327 19.8684 12.6753 20.5035 12.9929C21.1387 13.3105 21.3961 14.0827 21.0785 14.7178L17.2214 22.4321C16.9038 23.0673 16.1316 23.3247 15.4965 23.0071C14.8613 22.6895 14.6039 21.9173 14.9215 21.2822L18.7786 13.5679ZM14.0877 14.198C14.5898 14.7001 14.5898 15.5142 14.0877 16.0163L12.104 18L14.0877 19.9837C14.5898 20.4858 14.5898 21.2999 14.0877 21.802C13.5856 22.3041 12.7715 22.3041 12.2694 21.802L9.37659 18.9091C8.87451 18.4071 8.87451 17.5929 9.37659 17.0909L12.2694 14.198C12.7715 13.6959 13.5856 13.6959 14.0877 14.198ZM21.9123 16.0163C21.4102 15.5142 21.4102 14.7001 21.9123 14.198C22.4144 13.6959 23.2285 13.6959 23.7306 14.198L26.6234 17.0909C27.1255 17.5929 27.1255 18.4071 26.6234 18.9091L23.7306 21.802C23.2285 22.3041 22.4144 22.3041 21.9123 21.802C21.4102 21.2999 21.4102 20.4858 21.9123 19.9837L23.896 18L21.9123 16.0163Z" fill="#062630"/>
<path d="M7.42859 12H29.4286V24H7.42859V12Z" fill="#062630"/>
<path d="M14.6828 12.6953L11.9478 9.94775M20.4523 18.4609L17.6543 15.6628M16.061 16.3877V22.2321M18.1641 24.3367C18.1641 25.4999 17.2222 26.4419 16.0591 26.4419C14.8959 26.4419 13.9539 25.4999 13.9539 24.3367C13.9539 23.1737 14.8959 22.2317 16.0591 22.2317C17.2222 22.2317 18.1641 23.1737 18.1641 24.3367ZM24.0673 19.9197C24.0673 21.0829 23.1253 22.0249 21.9622 22.0249C20.799 22.0249 19.8571 21.0829 19.8571 19.9197C19.8571 18.7567 20.799 17.8147 21.9622 17.8147C23.1253 17.8147 24.0673 18.7567 24.0673 19.9197ZM18.1641 14.2838C18.1641 15.447 17.2222 16.389 16.0591 16.389C14.8959 16.389 13.9539 15.447 13.9539 14.2838C13.9539 13.1207 14.8959 12.1787 16.0591 12.1787C17.2222 12.1787 18.1641 13.1207 18.1641 14.2838Z" stroke="#FF9A60" stroke-width="1.42162" stroke-linecap="round" stroke-linejoin="round"/>
<path d="M52.1971 13.32V25H49.4671V13.32H45.4271V11.17H56.3571L56.0771 13.32H52.1971ZM59.5093 20.51C59.5626 21.17 59.7126 21.7067 59.9593 22.12C60.2126 22.5333 60.536 22.8367 60.9293 23.03C61.3226 23.2233 61.7593 23.32 62.2393 23.32C62.746 23.32 63.2226 23.24 63.6693 23.08C64.116 22.92 64.556 22.6967 64.9893 22.41L66.0893 23.92C65.596 24.3333 65.006 24.6667 64.3193 24.92C63.6393 25.1733 62.8893 25.3 62.0693 25.3C60.9226 25.3 59.956 25.0633 59.1693 24.59C58.3893 24.1167 57.7993 23.46 57.3993 22.62C56.9993 21.78 56.7993 20.8133 56.7993 19.72C56.7993 18.6667 56.996 17.7167 57.3893 16.87C57.7826 16.0233 58.3493 15.3533 59.0893 14.86C59.8293 14.36 60.7226 14.11 61.7693 14.11C62.7426 14.11 63.5826 14.3233 64.2893 14.75C64.996 15.1767 65.5426 15.79 65.9293 16.59C66.316 17.3833 66.5093 18.34 66.5093 19.46C66.5093 19.64 66.5026 19.8233 66.4893 20.01C66.4826 20.1967 66.4726 20.3633 66.4593 20.51H59.5093ZM61.7793 15.97C61.1393 15.97 60.6126 16.2 60.1993 16.66C59.7926 17.1133 59.5526 17.8333 59.4793 18.82H63.9393C63.926 17.9267 63.7393 17.23 63.3793 16.73C63.026 16.2233 62.4926 15.97 61.7793 15.97ZM73.3815 23.18C73.8482 23.18 74.2848 23.0933 74.6915 22.92C75.1048 22.7467 75.5015 22.5267 75.8815 22.26L77.0815 23.95C76.6148 24.3433 76.0515 24.6667 75.3915 24.92C74.7315 25.1733 74.0248 25.3 73.2715 25.3C72.1648 25.3 71.2148 25.07 70.4215 24.61C69.6348 24.1433 69.0282 23.4967 68.6015 22.67C68.1815 21.8367 67.9715 20.87 67.9715 19.77C67.9715 18.6833 68.1848 17.7133 68.6115 16.86C69.0448 16 69.6582 15.3267 70.4515 14.84C71.2515 14.3533 72.2048 14.11 73.3115 14.11C74.0715 14.11 74.7582 14.22 75.3715 14.44C75.9915 14.6533 76.5582 14.9733 77.0715 15.4L75.9015 17.02C75.5082 16.7467 75.1015 16.54 74.6815 16.4C74.2682 16.2533 73.8382 16.18 73.3915 16.18C72.6115 16.18 71.9748 16.4633 71.4815 17.03C70.9948 17.59 70.7515 18.5033 70.7515 19.77C70.7515 20.6033 70.8648 21.27 71.0915 21.77C71.3248 22.27 71.6382 22.63 72.0315 22.85C72.4315 23.07 72.8815 23.18 73.3815 23.18ZM81.4837 9.93V15.6C81.9237 15.1 82.417 14.7267 82.9637 14.48C83.517 14.2333 84.0937 14.11 84.6937 14.11C85.667 14.11 86.397 14.3867 86.8837 14.94C87.377 15.4867 87.6237 16.2567 87.6237 17.25V25H84.9837V17.84C84.9837 17.2 84.8837 16.7467 84.6837 16.48C84.4903 16.2133 84.157 16.08 83.6837 16.08C83.4037 16.08 83.1303 16.1467 82.8637 16.28C82.6037 16.4067 82.357 16.58 82.1237 16.8C81.897 17.02 81.6837 17.2667 81.4837 17.54V25H78.8437V10.19L81.4837 9.93ZM89.6359 25V14.41H91.9359L92.1259 15.72C92.5792 15.1867 93.0892 14.7867 93.6559 14.52C94.2225 14.2467 94.8325 14.11 95.4859 14.11C96.4392 14.11 97.1659 14.3867 97.6659 14.94C98.1659 15.4867 98.4159 16.2567 98.4159 17.25V25H95.7759V18.28C95.7759 17.7467 95.7425 17.32 95.6759 17C95.6092 16.6733 95.4825 16.44 95.2959 16.3C95.1092 16.1533 94.8392 16.08 94.4859 16.08C94.1992 16.08 93.9225 16.1433 93.6559 16.27C93.3959 16.3967 93.1492 16.5667 92.9159 16.78C92.6892 16.9933 92.4759 17.23 92.2759 17.49V25H89.6359ZM104.828 14.11C105.881 14.11 106.775 14.34 107.508 14.8C108.241 15.26 108.798 15.91 109.178 16.75C109.565 17.5833 109.758 18.56 109.758 19.68C109.758 20.8267 109.565 21.82 109.178 22.66C108.791 23.5 108.231 24.15 107.498 24.61C106.765 25.07 105.871 25.3 104.818 25.3C103.771 25.3 102.878 25.0767 102.138 24.63C101.405 24.1767 100.845 23.5333 100.458 22.7C100.071 21.86 99.8781 20.86 99.8781 19.7C99.8781 18.5933 100.071 17.62 100.458 16.78C100.845 15.94 101.408 15.2867 102.148 14.82C102.888 14.3467 103.781 14.11 104.828 14.11ZM104.828 16.1C104.088 16.1 103.535 16.39 103.168 16.97C102.808 17.55 102.628 18.46 102.628 19.7C102.628 20.9533 102.808 21.87 103.168 22.45C103.528 23.0233 104.078 23.31 104.818 23.31C105.558 23.31 106.108 23.0233 106.468 22.45C106.828 21.87 107.008 20.9467 107.008 19.68C107.008 18.4467 106.828 17.5433 106.468 16.97C106.108 16.39 105.561 16.1 104.828 16.1Z" fill="#062630"/>
<path d="M122.797 23.18C123.264 23.18 123.7 23.0933 124.107 22.92C124.52 22.7467 124.917 22.5267 125.297 22.26L126.497 23.95C126.03 24.3433 125.467 24.6667 124.807 24.92C124.147 25.1733 123.44 25.3 122.687 25.3C121.58 25.3 120.63 25.07 119.837 24.61C119.05 24.1433 118.444 23.4967 118.017 22.67C117.597 21.8367 117.387 20.87 117.387 19.77C117.387 18.6833 117.6 17.7133 118.027 16.86C118.46 16 119.074 15.3267 119.867 14.84C120.667 14.3533 121.62 14.11 122.727 14.11C123.487 14.11 124.174 14.22 124.787 14.44C125.407 14.6533 125.974 14.9733 126.487 15.4L125.317 17.02C124.924 16.7467 124.517 16.54 124.097 16.4C123.684 16.2533 123.254 16.18 122.807 16.18C122.027 16.18 121.39 16.4633 120.897 17.03C120.41 17.59 120.167 18.5033 120.167 19.77C120.167 20.6033 120.28 21.27 120.507 21.77C120.74 22.27 121.054 22.63 121.447 22.85C121.847 23.07 122.297 23.18 122.797 23.18ZM133.299 10.18V21.92C133.299 22.38 133.433 22.7067 133.699 22.9C133.973 23.0933 134.339 23.19 134.799 23.19C135.086 23.19 135.363 23.16 135.629 23.1C135.896 23.0333 136.149 22.9533 136.389 22.86L137.039 24.66C136.706 24.8267 136.299 24.9733 135.819 25.1C135.346 25.2333 134.796 25.3 134.169 25.3C133.016 25.3 132.143 24.97 131.549 24.31C130.956 23.65 130.659 22.76 130.659 21.64V12.05H127.489V10.18H133.299ZM141.691 14.41V21.75C141.691 22.3233 141.805 22.7267 142.031 22.96C142.258 23.1933 142.588 23.31 143.021 23.31C143.435 23.31 143.838 23.1867 144.231 22.94C144.625 22.6867 144.945 22.3667 145.191 21.98V14.41H147.831V25H145.531L145.391 23.7C145.011 24.22 144.525 24.6167 143.931 24.89C143.338 25.1633 142.725 25.3 142.091 25.3C141.071 25.3 140.308 25.0133 139.801 24.44C139.301 23.86 139.051 23.07 139.051 22.07V14.41H141.691ZM152.484 15.6C152.837 15.1333 153.254 14.77 153.734 14.51C154.22 14.2433 154.744 14.11 155.304 14.11C156.23 14.11 156.98 14.34 157.554 14.8C158.134 15.2533 158.557 15.8967 158.824 16.73C159.097 17.5633 159.234 18.5467 159.234 19.68C159.234 20.7667 159.074 21.7333 158.754 22.58C158.434 23.4267 157.957 24.0933 157.324 24.58C156.697 25.06 155.927 25.3 155.014 25.3C153.867 25.3 152.964 24.8633 152.304 23.99L152.184 25H149.844V10.18L152.484 9.9V15.6ZM154.334 23.33C155.007 23.33 155.534 23.0433 155.914 22.47C156.294 21.8967 156.484 20.9767 156.484 19.71C156.484 18.8167 156.404 18.1067 156.244 17.58C156.09 17.0467 155.867 16.6667 155.574 16.44C155.287 16.2067 154.94 16.09 154.534 16.09C154.094 16.09 153.704 16.2233 153.364 16.49C153.03 16.7567 152.737 17.0867 152.484 17.48V22.22C152.71 22.5733 152.977 22.8467 153.284 23.04C153.59 23.2333 153.94 23.33 154.334 23.33Z" fill="#062630"/>
</g>
<defs>
<clipPath id="clip0_122_599">
<rect width="160.857" height="36" fill="white"/>
</clipPath>
</defs>
</svg>
