<svg width="22" height="20" viewBox="0 0 22 20" fill="none" xmlns="http://www.w3.org/2000/svg">
<path d="M4.80391 1.67276C7.31328 3.55049 10.0117 7.36612 11 9.41573C11.9883 7.37041 14.6867 3.55479 17.1961 1.67276C19.0051 0.314945 21.9355 -0.733492 21.9355 2.60948C21.9355 3.27549 21.5531 8.2169 21.3297 9.02042C20.5477 11.8048 17.7031 12.5181 15.1723 12.0841C19.5938 12.836 20.7195 15.3282 18.2875 17.8204C13.6727 22.5556 11.6574 16.6345 11.1418 15.1177C11.0687 14.9071 11.0301 14.7825 11 14.7825C10.9699 14.7825 10.9312 14.9114 10.8582 15.1177C10.3426 16.6345 8.32305 22.5556 3.7125 17.8204C1.28477 15.3282 2.40625 12.836 6.82773 12.0841C4.29687 12.5181 1.45234 11.8048 0.674609 9.01612C0.446875 8.2126 0.0644531 3.2712 0.0644531 2.60518C0.0644531 -0.737789 2.99492 0.310648 4.80391 1.66846V1.67276Z" fill="white"/>
</svg>
