<svg width="44" height="43" viewBox="0 0 44 43" fill="none" xmlns="http://www.w3.org/2000/svg">
<rect x="0.560547" width="43" height="43" rx="21.5" fill="#00D8FF"/>
<path d="M31.4043 16.9271C31.0957 16.8204 30.7845 16.7216 30.4709 16.6307C30.5236 16.4138 30.572 16.1995 30.6151 15.989C31.3217 12.5324 30.8598 9.74766 29.2819 8.83079C27.769 7.95182 25.2948 8.86835 22.7961 11.0597C22.5498 11.2761 22.309 11.4987 22.0739 11.7273C21.9165 11.5753 21.7564 11.4262 21.5935 11.2801C18.9747 8.93707 16.3497 7.94954 14.7735 8.86903C13.262 9.75074 12.8144 12.3686 13.4506 15.6445C13.5139 15.969 13.5854 16.2917 13.6649 16.6125C13.2934 16.7189 12.9348 16.8321 12.5917 16.9527C9.52133 18.0314 7.56055 19.7219 7.56055 21.4754C7.56055 23.2864 9.66554 25.1029 12.8635 26.2044C13.1227 26.2933 13.3842 26.3757 13.6475 26.4515C13.562 26.797 13.486 27.1448 13.4198 27.4946C12.8133 30.7137 13.2869 33.2697 14.7943 34.1458C16.3513 35.0506 18.9645 34.1207 21.5089 31.8793C21.7152 31.6971 21.917 31.5097 22.114 31.3173C22.3686 31.5649 22.63 31.8052 22.8979 32.0381C25.3627 34.1752 27.7969 35.0382 29.3028 34.1597C30.8583 33.2523 31.3639 30.5065 30.7075 27.1659C30.6558 26.9041 30.5978 26.6437 30.5336 26.3848C30.7172 26.33 30.8973 26.2736 31.0729 26.215C34.3974 25.1051 36.5605 23.3106 36.5605 21.4754C36.5605 19.7155 34.5364 18.0136 31.4043 16.9271ZM30.6833 25.0301C30.5247 25.0829 30.362 25.134 30.1962 25.1836C29.8291 24.0128 29.3339 22.7678 28.7277 21.4814C29.3061 20.2258 29.7824 18.9967 30.1391 17.8335C30.4358 17.92 30.7236 18.0112 31.0012 18.1075C33.6848 19.0385 35.3217 20.4148 35.3217 21.4754C35.3217 22.605 33.5538 24.0715 30.6833 25.0301ZM29.4923 27.4083C29.7825 28.8854 29.8238 30.221 29.6316 31.2652C29.4589 32.2034 29.1116 32.8288 28.6821 33.0794C27.7682 33.6125 25.8138 32.9196 23.706 31.0918C23.4568 30.8753 23.2136 30.6518 22.9768 30.4217C23.794 29.5212 24.6106 28.4743 25.4077 27.3115C26.8096 27.1862 28.1341 26.9812 29.3352 26.7014C29.3944 26.9419 29.4469 27.1777 29.4923 27.4083ZM17.4473 32.9873C16.5544 33.3049 15.8432 33.3141 15.4133 33.0643C14.4986 32.5327 14.1183 30.4804 14.637 27.7275C14.6987 27.4022 14.7693 27.0787 14.8487 26.7573C16.0366 27.0221 17.3514 27.2125 18.7567 27.3274C19.5592 28.4651 20.3994 29.5109 21.2462 30.4266C21.0662 30.6021 20.882 30.773 20.6937 30.9394C19.5685 31.9304 18.441 32.6336 17.4473 32.9873ZM13.2643 25.0231C11.8502 24.536 10.6824 23.9031 9.88191 23.2123C9.16257 22.5917 8.7995 21.9754 8.7995 21.4754C8.7995 20.4113 10.3738 19.054 12.9995 18.1315C13.3182 18.0197 13.6517 17.9141 13.9978 17.815C14.3607 19.0045 14.8367 20.2481 15.4112 21.5058C14.8292 22.782 14.3464 24.0455 13.98 25.249C13.7396 25.1796 13.501 25.1043 13.2643 25.0231ZM14.6665 15.4047C14.1215 12.598 14.4834 10.4809 15.3943 9.94948C16.3644 9.38352 18.5097 10.1905 20.771 12.2137C20.9184 12.3459 21.0635 12.4808 21.2061 12.6183C20.3635 13.5301 19.531 14.5681 18.7356 15.6991C17.3717 15.8265 16.0662 16.031 14.8658 16.3051C14.7919 16.0067 14.7254 15.7065 14.6665 15.4048V15.4047ZM27.1758 18.5174C26.8922 18.0239 26.5982 17.5366 26.2939 17.0559C27.2191 17.1738 28.1057 17.3303 28.9382 17.5216C28.6883 18.3289 28.3768 19.1728 28.0101 20.0381C27.742 19.5256 27.4639 19.0186 27.1758 18.5174ZM22.0745 13.5106C22.6459 14.1344 23.2182 14.8308 23.7811 15.5865C22.6392 15.5322 21.4954 15.532 20.3535 15.5858C20.917 14.8371 21.4941 14.1416 22.0745 13.5106ZM16.9405 18.5259C16.6559 19.0232 16.383 19.527 16.1218 20.0371C15.7611 19.1749 15.4524 18.3271 15.2003 17.5084C16.0278 17.3219 16.9101 17.1694 17.8295 17.0536C17.5218 17.5373 17.2253 18.0281 16.9405 18.5258V18.5259ZM17.8559 25.986C16.906 25.8791 16.0104 25.7345 15.1832 25.553C15.4393 24.7197 15.7547 23.8539 16.1233 22.9732C16.3855 23.4836 16.6596 23.9878 16.9453 24.4852C17.2392 24.9966 17.5435 25.4975 17.8559 25.986ZM22.1087 29.5281C21.5214 28.8898 20.9358 28.1835 20.3638 27.424C20.9191 27.4459 21.4852 27.4571 22.0605 27.4571C22.6516 27.4571 23.236 27.4437 23.8111 27.4179C23.2464 28.1912 22.6762 28.8985 22.1087 29.5281ZM28.0217 22.9282C28.4094 23.8186 28.7361 24.6799 28.9955 25.4989C28.1547 25.6923 27.2469 25.848 26.2904 25.9636C26.5969 25.474 26.8937 24.9782 27.1806 24.4767C27.4724 23.9669 27.7528 23.4506 28.0217 22.9282ZM26.1075 23.8529C25.6682 24.6219 25.2043 25.3763 24.7163 26.1149C23.8324 26.1779 22.9466 26.2093 22.0605 26.2088C21.158 26.2088 20.2802 26.1805 19.4349 26.1252C18.9342 25.3884 18.4614 24.6327 18.0174 23.8598H18.0175C17.5757 23.091 17.1629 22.3056 16.7802 21.5052C17.1619 20.7046 17.5734 19.9188 18.0138 19.1494L18.0137 19.1495C18.4539 18.38 18.923 17.6275 19.4198 16.8938C20.2823 16.828 21.1666 16.7938 22.0604 16.7938H22.0605C22.9584 16.7938 23.8439 16.8284 24.7061 16.8946C25.198 17.6272 25.6641 18.3771 26.1034 19.1428C26.5453 19.9105 26.9622 20.6925 27.3536 21.4875C26.9662 22.2906 26.5506 23.0796 26.1075 23.8529ZM28.6631 9.91227C29.6342 10.4766 30.0119 12.7525 29.4017 15.737C29.3628 15.9274 29.319 16.1213 29.2715 16.318C28.0682 16.0381 26.7617 15.83 25.3938 15.7007C24.597 14.5572 23.7713 13.5176 22.9424 12.6177C23.1597 12.4067 23.3821 12.2011 23.6094 12.0012C25.7505 10.1238 27.7515 9.38249 28.6631 9.91227ZM22.0605 18.8659C23.4907 18.8659 24.6502 20.0342 24.6502 21.4754C24.6502 22.9166 23.4907 24.0849 22.0605 24.0849C20.6304 24.0849 19.4709 22.9166 19.4709 21.4754C19.4709 20.0342 20.6304 18.8659 22.0605 18.8659Z" fill="white"/>
</svg>
